<svg viewBox="0 0 128 128" fill="none" xmlns="http://www.w3.org/2000/svg">
  <rect width="128" height="128" rx="28" fill="#18181b"/>
  <g transform="translate(9, -0.5)">
    <path
      fill="#ffffff"
      d="M95.27,30.19c-12.06-14.72-31-20.73-49.43-15.69C26.96,19.68,13.4,34.85,10.46,54.09c-2.53,16.54,3.38,33.14,15.8,44.39,9,8.16,20.17,12.45,31.8,12.45,4.01,0,8.07-.51,12.12-1.54,16.09-4.11,28.79-16.01,33.98-31.84,5.35-16.32,2.03-34.02-8.9-47.36ZM98.21,56.15c-.31.05-.59.11-.82.1-1.12-.01-2.28-.07-3.44-.13-6.53-.32-13.92-.67-18.09,6.38-.67,1.13-1.2,2.5-1.72,3.82-.67,1.72-1.36,3.49-2.28,4.56-.26.31-.56.52-.9.77-.26.19-.53.39-.82.65-.97.03-1.86-.35-2.75-1.17-1.11-1.02-3.39-5.48-4.48-7.63-.25-.5-.47-.93-.65-1.27-.55-1.05-1.13-2.31-1.74-3.64-2.85-6.21-6.39-13.95-13.23-14.81-.52-.07-1.03-.1-1.51-.1-5.84,0-9.2,4.56-12.18,8.61-2.26,3.07-4.4,5.98-7.41,7.17-.95.38-4.74.92-6.41,1.03-1.25.08-2.4.1-3.03.06,0-.03,0-.07-.01-.1-.55-4.79,3-15.34,5.56-19.84,5.6-9.82,14.75-16.77,25.76-19.59,11.02-2.82,22.41-1.1,32.06,4.85,10.31,6.35,17.68,17.8,19.46,30.12-.51,0-.97.09-1.36.16ZM18.1,67.26c1.02.03,2.08.06,3.12-.01,6.62-.46,11.81-2.87,15.42-7.16.84-1,1.6-2.17,2.34-3.3,1.82-2.79,3.54-5.43,6.28-5.94,2.3-.43,4.32,2.15,5.08,3.28,1.38,2.05,2.76,5.12,4.21,8.38,2.8,6.27,5.7,12.75,9.87,15.22,2.46,1.46,4.88,1.89,7.18,1.29,2.81-.73,5.31-2.96,7.44-6.63.41-.7.83-1.65,1.29-2.64.97-2.14,2.59-5.72,4.09-6.14.33-.09,1.89-.5,2.33-.59h12.93c0,.42-.01.85-.02,1.27-.02,1.27-.03,2.57-.17,3.66-1.69,13.4-10.24,25.2-22.87,31.56-12.44,6.26-26.23,6.1-37.85-.45-12.13-6.84-20.12-18.64-21.62-31.8.31,0,.63.02.96.02Z"
    />
  </g>
</svg>
